<?xml version="1.0" ?><svg viewBox="0 0 512 512" xmlns="http://www.w3.org/2000/svg"><g id="E-learning_graduation"><path d="M210.1308,273.0056h-9.1836l-2.8369-8.7334v-.001a7.7623,7.7623,0,0,0-14.7646,0l-2.8389,8.7344h-9.1826a7.7625,7.7625,0,0,0-4.5625,14.0429l7.4287,5.3965-2.8379,8.7344a7.763,7.763,0,0,0,11.9463,8.6787l7.4287-5.3975,7.43,5.3975a7.6487,7.6487,0,0,0,9.125,0,7.647,7.647,0,0,0,2.8193-8.6787l-2.8379-8.7334,7.4307-5.3984a7.7624,7.7624,0,0,0-4.5635-14.042Zm-7.709,13.0693a7.7452,7.7452,0,0,0-2.8193,8.6787l2.6641,8.2022-6.9766-5.0694a7.7474,7.7474,0,0,0-9.126,0l-6.9765,5.0694,2.664-8.2012a7.7431,7.7431,0,0,0-2.8193-8.68l-6.9775-5.0693h8.625a7.7438,7.7438,0,0,0,7.3818-5.3633l2.666-8.2022,2.665,8.2032a7.7445,7.7445,0,0,0,7.3829,5.3623H209.4Z"/><path d="M279.4482,273.0056h-9.1836l-2.8369-8.7334-.001-.002a7.763,7.763,0,0,0-14.7656.002l-2.8369,8.7334h-9.1836a7.7621,7.7621,0,0,0-4.5615,14.0429l7.4287,5.3965-2.8369,8.7334a7.6469,7.6469,0,0,0,2.8183,8.68,7.645,7.645,0,0,0,9.125,0l7.43-5.3975,7.43,5.3965a7.762,7.762,0,0,0,11.9453-8.6777l-2.8379-8.7334,7.4287-5.3975a7.7621,7.7621,0,0,0-4.5615-14.0429Zm-7.708,13.0693a7.7387,7.7387,0,0,0-2.82,8.6787l2.6641,8.2022-6.9766-5.0694a7.7417,7.7417,0,0,0-9.125,0l-6.9775,5.0684,2.664-8.2a7.7431,7.7431,0,0,0-2.8193-8.68l-6.9776-5.0693h8.625a7.7456,7.7456,0,0,0,7.3829-5.3643l2.665-8.2021,2.665,8.2041a7.7442,7.7442,0,0,0,7.3819,5.3623h8.625Z"/><path d="M348.7646,273.0056H339.582l-2.8389-8.7344h.001a7.7628,7.7628,0,0,0-14.7656.001l-2.8369,8.7334H309.958a7.7625,7.7625,0,0,0-4.5625,14.0429l7.43,5.3975-2.8389,8.7334a7.7629,7.7629,0,0,0,11.9453,8.6787l7.43-5.3975,7.43,5.3965a7.6481,7.6481,0,0,0,9.126.001,7.647,7.647,0,0,0,2.8193-8.6777l-2.8379-8.7354,7.43-5.3974a7.7624,7.7624,0,0,0-4.5635-14.042Zm-7.709,13.0693a7.7442,7.7442,0,0,0-2.8193,8.6777l2.6641,8.2022-6.9756-5.0684a7.747,7.747,0,0,0-9.125,0l-6.9785,5.0694,2.665-8.2012a7.7408,7.7408,0,0,0-2.8193-8.68l-6.9776-5.0693h8.625a7.7454,7.7454,0,0,0,7.3828-5.3643l2.6641-8.2012,2.666,8.2032a7.7442,7.7442,0,0,0,7.3818,5.3623h8.625Z"/><path d="M465.3362,98.8029H394.7816a14.0769,14.0769,0,0,0-6.6381-6.2016L295.7561,50.76c12.4767-8.2742,28.4092-13.1946,47.6745-14.6872,5.2245,6.4272,19.0517,18.6792,41.3946,18.6792q2.6015,0,5.36-.23a5,5,0,0,0-.8476-9.9649c-20.6768,1.7647-32.833-8.8476-37.2178-13.663,4.3848-4.8164,16.5508-15.4278,37.2178-13.6631a5,5,0,0,0,.8476-9.9649C364.24,5.06,348.5123,19.28,343.1411,26.0764c-26.6555,2-45.0847,10.1352-57.783,19.9743l-12.4939-5.6584a29.34,29.34,0,0,0-23.7373-.1875L128.6045,92.5163a14.0567,14.0567,0,0,0-6.8453,6.2866H46.6662a31.5579,31.5579,0,0,0-31.53,31.52v16.898c0,.0085-.0025.0164-.0025.0249s.0024.0164.0025.0249V347.0314c0,.0086-.0025.0164-.0025.0249s.0024.0164.0025.0249v41.2217a31.56,31.56,0,0,0,31.53,31.53H218.1875l-10.2834,75.1315H183.5215a5,5,0,0,0,0,10h146.875a5,5,0,0,0,0-10H306.0138L295.73,419.833H465.3362a31.5668,31.5668,0,0,0,31.53-31.53v-257.98A31.5644,31.5644,0,0,0,465.3362,98.8029ZM295.92,494.9645H217.998l10.283-75.1315h57.3559ZM465.3362,409.833H290.0123l-.0133-.0013h-66.08l-.0133.0013H46.6662a21.5565,21.5565,0,0,1-21.53-21.53V352.0563H414.99a5,5,0,0,0,0-10H25.1363V152.2458H141.6494a5,5,0,0,0,0-10H25.1363V130.3229a21.5478,21.5478,0,0,1,21.53-21.52H120.48a14.0037,14.0037,0,0,0,7.283,9.2622l15.2041,7.8252A5,5,0,1,0,147.5429,117l-15.2041-7.8252a4.1427,4.1427,0,0,1,.2471-7.4844L253.1084,49.3786a19.3211,19.3211,0,0,1,15.6308.1231l8.46,3.8313a75.9082,75.9082,0,0,0-10.608,13.7409,79.3145,79.3145,0,0,0-11.4219,37.4776,4.995,4.995,0,0,0,4.9873,4.9941h.0127a5.006,5.006,0,0,0,5-4.9824,70.5044,70.5044,0,0,1,10.2227-32.7149,66.9585,66.9585,0,0,1,11.5107-14.1208l97.1162,43.9831a4.1428,4.1428,0,0,1,.251,7.4239L269.8759,170.5651a19.2807,19.2807,0,0,1-17.9443.1573l-82.0889-42.2461a5,5,0,0,0-4.5761,8.8916l16.17,8.3213v43.0937c0,24.2,34.59,43.16,78.73,43.16a139.2557,139.2557,0,0,0,29.77-3.12,5.0008,5.0008,0,1,0-2.14-9.77,129.0306,129.0306,0,0,1-27.63,2.89c-37.25,0-68.73-15.19-68.73-33.16V150.8354l55.9192,28.7776a29.2724,29.2724,0,0,0,27.251-.2373l54.29-29.1543v38.5615c0,8.11-6.88,16.33-18.89,22.54a5,5,0,1,0,4.6,8.88c15.66-8.11,24.29-19.27,24.29-31.42V144.8513L389,117.945a14.0465,14.0465,0,0,0,7.0619-9.1421h69.2743a21.5479,21.5479,0,0,1,21.53,21.52v11.9229H368.9453a5,5,0,0,0,0,10H486.8662V342.0563h-49.49a5,5,0,0,0,0,10h49.49v36.2466A21.5566,21.5566,0,0,1,465.3362,409.833Z"/><path d="M255.998,364.2692a16.7232,16.7232,0,1,0,16.7236,16.7237A16.7423,16.7423,0,0,0,255.998,364.2692Zm0,23.4463a6.7232,6.7232,0,1,1,6.7236-6.7226A6.7309,6.7309,0,0,1,255.998,387.7155Z"/><path d="M377.3388,25.8933a5,5,0,1,0,0,10h14.1133a5,5,0,0,0,0-10Z"/></g></svg>